<?xml version="1.0" encoding="iso-8859-1"?>
<!-- Generator: Adobe Illustrator 19.0.0, SVG Export Plug-In . SVG Version: 6.00 Build 0)  -->
<svg version="1.1" id="Layer_1" xmlns="http://www.w3.org/2000/svg" xmlns:xlink="http://www.w3.org/1999/xlink" x="0px" y="0px"
	 viewBox="0 0 512 512" style="enable-background:new 0 0 512 512;" xml:space="preserve">
<path style="fill:#ED1F34;" d="M503.742,126.259v259.487c0,19.561-15.858,35.418-35.418,35.418H43.676
	c-19.561,0-35.418-15.857-35.418-35.418V126.259c0-19.561,15.857-35.418,35.418-35.418h424.648
	C487.884,90.841,503.742,106.699,503.742,126.259z"/>
<path style="fill:#103B9B;" d="M256,256.008H8.258V128.215c0-20.637,16.73-37.368,37.368-37.368H256V256.008z"/>
<g>
	<path style="fill:#FFFFFF;" d="M132.129,154.158c-10.624,0-19.269,8.645-19.269,19.269c0,10.624,8.645,19.269,19.269,19.269
		c10.624,0,19.269-8.645,19.269-19.269C151.398,162.803,142.753,154.158,132.129,154.158z"/>
	<path style="fill:#FFFFFF;" d="M181.489,165.169h-5.375c-1.164-6.208-3.605-11.97-7.052-16.995l3.811-3.811
		c3.225-3.225,3.225-8.453,0-11.678c-3.224-3.226-8.453-3.225-11.679,0l-3.811,3.811c-5.025-3.447-10.786-5.889-16.995-7.052v-5.377
		c0-4.561-3.697-8.258-8.258-8.258c-4.561,0-8.258,3.697-8.258,8.258v5.377c-6.208,1.164-11.97,3.605-16.995,7.052l-3.811-3.811
		c-3.225-3.226-8.454-3.225-11.678,0c-3.225,3.225-3.225,8.454,0,11.678l3.811,3.811c-3.447,5.025-5.89,10.786-7.052,16.995H82.77
		c-4.561,0-8.258,3.697-8.258,8.258s3.697,8.258,8.258,8.258h5.375c1.163,6.208,3.605,11.97,7.052,16.995l-3.811,3.81
		c-3.225,3.225-3.225,8.453,0,11.678c1.612,1.613,3.726,2.419,5.839,2.419s4.227-0.806,5.839-2.419l3.811-3.81
		c5.025,3.446,10.786,5.889,16.995,7.052v5.377c0,4.561,3.697,8.258,8.258,8.258c4.561,0,8.258-3.697,8.258-8.258v-5.377
		c6.208-1.163,11.97-3.605,16.995-7.052l3.811,3.81c1.612,1.613,3.726,2.419,5.839,2.419s4.227-0.806,5.839-2.419
		c3.225-3.225,3.225-8.454,0-11.678l-3.811-3.81c3.447-5.025,5.889-10.786,7.052-16.995h5.375c4.561,0,8.258-3.697,8.258-8.258
		C189.747,168.866,186.05,165.169,181.489,165.169z M132.129,201.671c-15.574,0-28.244-12.67-28.244-28.244
		s12.67-28.244,28.244-28.244s28.244,12.67,28.244,28.244S147.703,201.671,132.129,201.671z"/>
</g>
<path style="fill:#1A1C20;" d="M468.324,82.583H256.107c-0.036,0-0.07-0.006-0.107-0.006c-0.036,0-0.07,0.004-0.107,0.006H43.675
	C19.593,82.583,0,102.176,0,126.259v259.487c0,24.083,19.593,43.676,43.675,43.676h424.648c24.083,0,43.676-19.593,43.676-43.676
	V126.259C512,102.176,492.407,82.583,468.324,82.583z M43.675,99.099h204.067V247.75l-231.226-0.006V126.259
	C16.516,111.283,28.7,99.099,43.675,99.099z M495.484,385.746c0,14.976-12.183,27.16-27.16,27.16H43.675
	c-14.976-0.001-27.159-12.184-27.159-27.16V264.261L256,264.267c2.19,0,4.291-0.87,5.839-2.419c1.549-1.548,2.419-3.649,2.419-5.839
	V99.099h204.066c14.976,0,27.16,12.183,27.16,27.16V385.746z"/>
<g>
</g>
<g>
</g>
<g>
</g>
<g>
</g>
<g>
</g>
<g>
</g>
<g>
</g>
<g>
</g>
<g>
</g>
<g>
</g>
<g>
</g>
<g>
</g>
<g>
</g>
<g>
</g>
<g>
</g>
</svg>
